<?xml version="1.0" encoding="utf-8"?>
<!-- Generator: Adobe Illustrator 27.9.3, SVG Export Plug-In . SVG Version: 9.03 Build 53313)  -->
<!DOCTYPE svg PUBLIC "-//W3C//DTD SVG 1.1//EN" "http://www.w3.org/Graphics/SVG/1.1/DTD/svg11.dtd" [
	<!ENTITY ns_extend "http://ns.adobe.com/Extensibility/1.0/">
	<!ENTITY ns_ai "http://ns.adobe.com/AdobeIllustrator/10.0/">
	<!ENTITY ns_graphs "http://ns.adobe.com/Graphs/1.0/">
	<!ENTITY ns_vars "http://ns.adobe.com/Variables/1.0/">
	<!ENTITY ns_imrep "http://ns.adobe.com/ImageReplacement/1.0/">
	<!ENTITY ns_sfw "http://ns.adobe.com/SaveForWeb/1.0/">
	<!ENTITY ns_custom "http://ns.adobe.com/GenericCustomNamespace/1.0/">
	<!ENTITY ns_adobe_xpath "http://ns.adobe.com/XPath/1.0/">
]>
<svg version="1.1" id="Artwork" xmlns:x="&ns_extend;" xmlns:i="&ns_ai;" xmlns:graph="&ns_graphs;"
	 xmlns="http://www.w3.org/2000/svg" xmlns:xlink="http://www.w3.org/1999/xlink" x="0px" y="0px" viewBox="0 0 377.8 74.6"
	 style="enable-background:new 0 0 377.8 74.6;" xml:space="preserve">
<style type="text/css">
	.st0{fill:#010101;}
</style>
<metadata>
	<sfw  xmlns="&ns_sfw;">
		<slices></slices>
		<sliceSourceBounds  bottomLeftOrigin="true" height="72.9" width="377.3" x="9.8" y="7.1"></sliceSourceBounds>
	</sfw>
</metadata>
<g>
	<g>
		<path class="st0" d="M7.8,62h9.8v5H1.8V43.7h5.8V62C7.6,62,7.8,62,7.8,62z"/>
		<path class="st0" d="M25.4,43.9c0,1.7-1.5,3-3.2,3s-3.2-1.3-3.2-3s1.5-3,3.2-3S25.4,42.2,25.4,43.9z M25.1,67h-5.6V49.2h5.6V67z"
			/>
		<path class="st0" d="M33.9,50.9c1.2-1.3,2.8-2,4.8-2c4.6,0,7.8,3.8,7.8,9.5c0,5.6-3.3,9.3-8,9.3c-2.3,0-3.8-0.8-5-2.2v1.7h-5.3
			V43.9h5.6v7H33.9z M33.6,58.2c0,3.3,1.5,5,3.5,5c2.3,0,3.7-1.7,3.7-5c0-3.3-1.3-5-3.5-5C34.9,53.2,33.6,54.7,33.6,58.2z"/>
		<path class="st0" d="M60.6,48.9v5.3c-0.7,0-0.8,0-1.2,0c-2.7,0-4.8,1.2-4.8,6v7H49v-18h5.3V52c1.2-2.5,3-3.3,4.8-3.3
			C59.6,48.7,60.1,48.9,60.6,48.9z"/>
		<path class="st0" d="M77.7,54.4v8.8c0,1.5,0.2,2.7,0.7,4h-5.5c-0.3-0.5-0.5-1.2-0.7-1.8c-1.2,1.7-3,2.2-5.1,2.2
			c-3.8,0-5.8-2.3-5.8-5.5c0-3.5,2-5.5,7.5-6.1l3.3-0.3v-0.8c0-1.7-0.5-2.2-2.2-2.2s-2.3,0.7-2.5,2h-5.5c0.2-3.8,3-5.8,8-5.8
			C75.6,48.7,77.7,50.9,77.7,54.4z M70.1,59.2c-2.3,0.3-3.2,1-3.2,2.3c0,1.2,0.7,1.8,2,1.8c1.8,0,3.2-1.2,3.2-3v-1.5L70.1,59.2z"/>
		<path class="st0" d="M92.5,48.9v5.3c-0.7,0-0.8,0-1.2,0c-2.7,0-4.8,1.2-4.8,6v7h-5.6v-18h5.3V52c1.2-2.5,3-3.3,4.8-3.3
			C91.5,48.7,92,48.9,92.5,48.9z"/>
		<path class="st0" d="M105.9,67.5c-1,3.7-2.7,6-7.5,6c-1.2,0-2-0.2-2.7-0.3v-3.8c1,0,1.3,0,1.7,0c2.3,0,3-0.5,3.3-2.5h-2.2
			l-5.8-17.8H99l3,13.9l2.8-13.9h6.1L105.9,67.5z"/>
	</g>
	<g>
		<path class="st0" d="M368.9,28.8L375,15c1.2-2.7,1.7-3.3,2.8-3.7v-1h-6.5v1c2.2,0.5,2.3,1.5,1.3,3.8l-2.5,6l-3.2-7
			c-0.7-1.5-0.5-2.5,1.7-2.7v-1H360v1c1,0.3,1.5,0.7,2.3,2.5l5.5,11.8l-1,2c-0.5,1.2-1,2-1.5,2.5c-0.3-1.3-1.2-2-2.3-2
			c-1.2,0-2.2,0.8-2.2,2.3s1.3,2.7,2.7,2.7C366.1,33.4,367.4,32.3,368.9,28.8 M360.1,24.6l-0.5-1c-0.8,0.3-1.7,0.7-2.3,0.7
			c-1.5,0-2-0.8-2-1.8v-10h4.2v-1.8h-4.2v-3h-0.7l-6,3.8v1h2.3v10.8c0,2.2,1.2,3.3,3.7,3.3C356.8,26.5,358.6,25.8,360.1,24.6
			 M347.7,25.1c-2-0.3-2.3-0.7-2.3-2.5V10h-1.7l-4.8,3.2v0.7h2.3v8.8c0,1.8-0.3,2.2-2.3,2.5v1h8.8V25.1z M343,7.5
			c1.3,0,2.5-1.2,2.5-2.5s-1-2.3-2.3-2.3c-1.5,0-2.5,1.2-2.5,2.5C340.7,6.6,341.7,7.5,343,7.5 M337.2,21.3c0-3-2.5-4-5-4.8
			c-2.3-0.8-4-1.2-4-3c0-1,0.7-1.8,2-1.8c1.7,0,3.2,1,5,3l0.8-0.3l-1.3-4.2h-0.5l-0.7,0.5c-1-0.3-2-0.7-3.2-0.7c-3.5,0-5.8,2-5.8,5
			s2.5,4,5,4.6c2.3,0.8,4,1.2,4,3c0,1.2-0.8,2-2.3,2c-2.2,0-3.8-1.5-6-4l-0.8,0.3l1.3,5.1h0.5l1-0.7c1.2,0.5,2.3,0.8,3.7,0.8
			C334.4,26.6,337.2,24.6,337.2,21.3 M320.1,25.3c-2.2-0.3-2.5-0.8-2.5-2.8v-6.8c0.7-1.2,1.3-2,2-2.7c0,1.3,0.8,2.2,2,2.2
			s2.2-0.8,2.2-2.7c0-1.5-0.8-2.3-2.3-2.3c-1.7,0-2.8,1.3-4,3.3v-3.3H316l-4.8,3.2v0.7h2.3v8.8c0,1.8-0.3,2.3-2.2,2.5v1h8.8V25.3z
			 M299.5,16.3c0-2.7,1.2-4.3,3.3-4.3c1.5,0,2.5,1.2,2.8,3.2l-6.1,2.2C299.5,17,299.5,16.7,299.5,16.3 M309.8,23.3l-0.8-0.7
			c-0.8,1-2.2,1.7-3.8,1.7c-3,0-4.8-2.3-5.3-5.3l9.8-3.3c-0.2-3.5-2.8-5.3-6-5.3c-4.6,0-8,3.7-8,8.3c0,4.5,3,8,8,8
			C306.8,26.6,308.6,25.1,309.8,23.3 M292.5,15.2c1.2-2.7,1.7-3.3,2.8-3.7v-1h-6.5v1c2.2,0.5,2.3,1.5,1.3,3.8l-2.5,6l-3.2-7
			c-0.7-1.5-0.5-2.5,1.7-2.7v-1h-8.6v1c1,0.3,1.5,0.7,2.3,2.5l5.6,12.1h1.7L292.5,15.2z M277.4,25.3c-2-0.3-2.3-0.7-2.3-2.5V10.2
			h-1.7l-4.8,3.2v0.7h2.3v8.8c0,1.8-0.3,2.2-2.3,2.5v1h8.8V25.3z M272.8,7.7c1.3,0,2.5-1.2,2.5-2.5s-1-2.3-2.3-2.3
			c-1.5,0-2.5,1.2-2.5,2.5C270.5,6.7,271.5,7.7,272.8,7.7 M256.2,25.3c-1.8-0.3-2.2-0.7-2.2-2.5v-7.6c1.7-1.5,3-2.2,4.2-2.2
			c1.7,0,2,0.8,2.2,2.3v7.5c0,1.8-0.3,2.3-2.2,2.5v1h8.5v-1c-1.8-0.3-2.2-0.7-2.2-2.5V15c0-2.7-1.2-4.5-4.5-4.5c-2,0-4,1.3-6,3v-3.2
			h-1.5l-4.8,3.2v0.7h2.3V23c0,1.8-0.3,2.3-2.2,2.5v1h8.5L256.2,25.3z M220.3,6.1v9.8c0,6.3,3.3,10.8,11.8,10.8s11.8-4.5,11.6-10.8
			v-8c0-3.8,1-4.8,3-5.3v-1h-8v1c1.8,0.5,3,1.5,3,5.3v8c0,5.6-3,8.1-8.5,8.1s-8.5-2.5-8.5-8.1v-10c0-2.5,0.7-3,2.8-3.2V1.6h-10v1.2
			C219.7,3.1,220.3,3.6,220.3,6.1"/>
		<path class="st0" d="M193.9,25.5c-1.8-0.3-2.2-0.7-2.2-2.5v-7.6c1.7-1.5,3-2.2,4.2-2.2c1.7,0,2,0.8,2.2,2.3V23
			c0,1.8-0.3,2.3-2.2,2.5v1h8.5v-1c-1.8-0.3-2.2-0.7-2.2-2.5v-7.8c0-2.7-1.2-4.5-4.5-4.5c-2,0-4,1.3-6,3v-3.2h-1.5l-4.8,3.2v0.7h2.3
			v8.8c0,1.8-0.3,2.3-2.2,2.5v1h8.5L193.9,25.5z M180.8,25.5c-2.2-0.3-2.5-0.8-2.5-2.8v-6.8c0.7-1.2,1.3-2,2-2.7
			c0,1.3,0.8,2.2,2,2.2s2.2-0.8,2.2-2.7c0-1.5-0.8-2.3-2.3-2.3c-1.7,0-2.8,1.3-4,3.3v-3.3h-1.5l-4.8,3.2v0.7h2.3v8.8
			c0,1.8-0.3,2.3-2.2,2.5v1h8.8V25.5z M160.2,16.5c0-2.7,1.2-4.3,3.3-4.3c1.5,0,2.5,1.2,2.8,3.2l-6.1,2.2
			C160.2,17.3,160.2,17,160.2,16.5 M170.5,23.5l-0.8-0.7c-0.8,1-2.2,1.7-3.8,1.7c-3,0-4.8-2.3-5.3-5.3l9.8-3.3
			c-0.2-3.5-2.8-5.3-6-5.3c-4.6,0-8,3.7-8,8.3c0,4.5,3,8,8,8C167.5,26.8,169.4,25.5,170.5,23.5 M155.2,25.1l-0.5-1
			c-0.8,0.3-1.7,0.7-2.3,0.7c-1.5,0-2-0.8-2-1.8V13h4.2v-1.8h-4.2v-3h-0.7l-6,3.8v1h2.3v10.8c0,2.2,1.2,3.3,3.7,3.3
			C151.9,27,153.8,26.3,155.2,25.1 M142.8,21.7c0-3-2.5-4-5-4.8c-2.3-0.8-4-1.2-4-3c0-1,0.7-1.8,2-1.8c1.7,0,3.2,1,5,3l0.8-0.3
			l-1.3-4.2h-0.5l-0.7,0.5c-1-0.3-2-0.7-3.2-0.7c-3.5,0-5.8,2-5.8,5s2.5,4,5,4.6c2.3,0.8,4,1.2,4,3c0,1.2-0.8,2-2.3,2
			c-2.2,0-3.8-1.5-6-4l-0.8,0.3l1.3,5.1h0.5l1-0.7c1.2,0.5,2.3,0.8,3.7,0.8C140.1,27,142.8,25,142.8,21.7 M117.6,22.5
			c0-1.7,0.8-2.5,4.6-3.5v4.8c-1,0.7-1.7,1-2.5,1C118.2,24.6,117.6,24,117.6,22.5 M124.7,26.8c1.5,0,3-0.7,4-1.3l-0.3-1
			c-1.7,0.3-2.2,0-2.2-1v-8.8c0-2.7-1.2-4-4.8-4c-4.2,0-7.3,2.3-7.3,4.3c0,1,0.7,1.8,1.8,1.8c1.3,0,2-0.8,2.2-1.8s-0.2-1.8-0.7-2.2
			c0.8-0.3,1.7-0.7,2.5-0.7c1.5,0,2.2,0.5,2.2,1.8v3.3c-5.8,1.5-8.6,2.8-8.6,5.8c0,2.3,1.5,3.7,4,3.7c1.5,0,3.3-0.7,4.8-1.8
			C122.5,26.1,123.4,26.8,124.7,26.8 M101.5,16.7c0-2.7,1.2-4.3,3.3-4.3c1.5,0,2.5,1.2,2.8,3.2l-6.1,2.2
			C101.5,17.3,101.5,17,101.5,16.7 M111.8,23.7L111,23c-0.8,1-2.2,1.7-3.8,1.7c-3,0-4.8-2.3-5.3-5.3l9.8-3.3c-0.2-3.5-2.8-5.3-6-5.3
			c-4.6,0-8,3.7-8,8.3c0,4.5,3,8,8,8C108.8,27,110.6,25.6,111.8,23.7 M85.5,25.6c-1.8-0.3-2.2-0.7-2.2-2.5v-7.6
			c1.7-1.5,2.8-2.2,4.2-2.2c1.7,0,2,0.8,2.2,2.3v7.5c0,1.8-0.3,2.3-2.2,2.5v1H96v-1c-1.8-0.3-2.2-0.7-2.2-2.5v-7.8
			c0-2.7-1.2-4.5-4.5-4.5c-2,0-4,1.2-6,2.8v-13h-1.1l-5.3,3.5v0.7h2.3v18.4c0,1.8-0.3,2.3-2.2,2.5v1h8.5V25.6z M76.1,25.1l-0.5-1
			c-0.8,0.3-1.7,0.7-2.3,0.7c-1.5,0-2-0.8-2-1.8V13h4.2v-1.8h-4.3v-3h-0.7l-6,3.8v1h2.3v10.8c0,2.2,1.2,3.3,3.7,3.3
			C72.7,27,74.6,26.5,76.1,25.1 M60,25.6c-2.2-0.3-2.5-0.8-2.5-2.8V16c0.7-1.2,1.3-2,2-2.7c0,1.3,0.8,2.2,2,2.2s2.2-0.8,2.2-2.7
			c0-1.5-0.8-2.3-2.3-2.3c-1.7,0-2.8,1.3-4,3.3v-3.3h-1.5l-4.8,3.2v0.7h2.3v8.8c0,1.8-0.3,2.3-2.2,2.5v1H60L60,25.6z M36.2,17.3
			c0-3,1.3-4.8,4-4.8c3.5,0,4.5,4.3,4.5,8.1c0,3-1.3,4.8-4,4.8C37.2,25.5,36.2,21.2,36.2,17.3 M48.8,18.7c0-4.3-3-8-8.1-8
			c-5.3,0-8.5,3.8-8.5,8.3c0,4.3,3,8,8.1,8C45.7,27.1,48.8,23.2,48.8,18.7 M27.2,8.5c0-3.8,1-4.8,3-5.3v-1h-8v1c1.8,0.5,3,1.5,3,5.3
			v11.6L8.5,3.2c-1-1-1.3-1-1.8-1H0.5v1c1.3,0.2,2.2,0.7,3.7,2.2c0.5,0.5,1,1,1,2v13.1c0,3.8-1,4.8-3,5.3v1h8v-1
			c-1.8-0.5-3-1.5-3-5.3V8l18.9,18.9h1.3L27.2,8.5z"/>
	</g>
</g>
</svg>
