<?xml version="1.0" encoding="utf-8"?>
<!-- Generator: Adobe Illustrator 27.9.3, SVG Export Plug-In . SVG Version: 9.03 Build 53313)  -->
<!DOCTYPE svg PUBLIC "-//W3C//DTD SVG 1.1//EN" "http://www.w3.org/Graphics/SVG/1.1/DTD/svg11.dtd" [
	<!ENTITY ns_extend "http://ns.adobe.com/Extensibility/1.0/">
	<!ENTITY ns_ai "http://ns.adobe.com/AdobeIllustrator/10.0/">
	<!ENTITY ns_graphs "http://ns.adobe.com/Graphs/1.0/">
	<!ENTITY ns_vars "http://ns.adobe.com/Variables/1.0/">
	<!ENTITY ns_imrep "http://ns.adobe.com/ImageReplacement/1.0/">
	<!ENTITY ns_sfw "http://ns.adobe.com/SaveForWeb/1.0/">
	<!ENTITY ns_custom "http://ns.adobe.com/GenericCustomNamespace/1.0/">
	<!ENTITY ns_adobe_xpath "http://ns.adobe.com/XPath/1.0/">
]>
<svg version="1.1" id="Artwork" xmlns:x="&ns_extend;" xmlns:i="&ns_ai;" xmlns:graph="&ns_graphs;"
	 xmlns="http://www.w3.org/2000/svg" xmlns:xlink="http://www.w3.org/1999/xlink" x="0px" y="0px" viewBox="0 0 378.7 74.8"
	 style="enable-background:new 0 0 378.7 74.8;" xml:space="preserve">
<style type="text/css">
	.st0{fill:#FFFFFF;}
</style>
<metadata>
	<sfw  xmlns="&ns_sfw;">
		<slices></slices>
		<sliceSourceBounds  bottomLeftOrigin="true" height="72.9" width="377.4" x="9.8" y="30.1"></sliceSourceBounds>
	</sfw>
</metadata>
<g>
	<g>
		<path class="st0" d="M7.8,62.4h9.8v5H1.8V44.2h5.8v18.3H7.8z"/>
		<path class="st0" d="M25.4,44.3c0,1.7-1.5,3-3.2,3c-1.7,0-3.2-1.3-3.2-3c0-1.7,1.5-3,3.2-3C23.9,41.3,25.4,42.7,25.4,44.3z
			 M25.1,67.4h-5.6V49.6h5.6V67.4z"/>
		<path class="st0" d="M33.9,51.3c1.2-1.3,2.8-2,4.8-2c4.6,0,7.8,3.8,7.8,9.5c0,5.6-3.3,9.3-8,9.3c-2.3,0-3.8-0.8-5-2.2v1.7h-5.3
			V44.3h5.6V51.3z M33.5,58.6c0,3.3,1.5,5,3.5,5c2.3,0,3.7-1.7,3.7-5c0-3.3-1.3-5-3.5-5C34.9,53.6,33.5,55.1,33.5,58.6z"/>
		<path class="st0" d="M60.6,49.3v5.3c-0.7,0-0.8,0-1.2,0c-2.7,0-4.8,1.2-4.8,6v7H49V49.6h5.3v2.8c1.2-2.5,3-3.3,4.8-3.3
			C59.6,49.2,60.1,49.3,60.6,49.3z"/>
		<path class="st0" d="M77.7,54.8v8.8c0,1.5,0.2,2.7,0.7,4h-5.5c-0.3-0.5-0.5-1.2-0.7-1.8c-1.2,1.7-3,2.2-5.1,2.2
			c-3.8,0-5.8-2.3-5.8-5.5c0-3.5,2-5.5,7.5-6.1l3.3-0.3v-0.8c0-1.7-0.5-2.2-2.2-2.2c-1.7,0-2.3,0.7-2.5,2h-5.5c0.2-3.8,3-5.8,8-5.8
			C75.5,49.2,77.7,51.3,77.7,54.8z M70.1,59.6c-2.3,0.3-3.2,1-3.2,2.3c0,1.2,0.7,1.8,2,1.8c1.8,0,3.2-1.2,3.2-3v-1.5L70.1,59.6z"/>
		<path class="st0" d="M92.5,49.3v5.3c-0.7,0-0.8,0-1.2,0c-2.7,0-4.8,1.2-4.8,6v7h-5.6V49.6h5.3v2.8c1.2-2.5,3-3.3,4.8-3.3
			C91.5,49.2,92,49.3,92.5,49.3z"/>
		<path class="st0" d="M105.9,67.9c-1,3.7-2.7,6-7.5,6c-1.2,0-2-0.2-2.7-0.3v-3.8c1,0,1.3,0,1.7,0c2.3,0,3-0.5,3.3-2.5h-2.2
			l-5.8-17.8h6.3l3,13.9l2.8-13.9h6.1L105.9,67.9z"/>
	</g>
	<g>
		<path class="st0" d="M368.9,29.2l6.1-13.8c1.2-2.7,1.7-3.3,2.8-3.7v-1h-6.5v1c2.2,0.5,2.3,1.5,1.3,3.8l-2.5,6l-3.2-7
			c-0.7-1.5-0.5-2.5,1.7-2.7v-1h-8.6v1c1,0.3,1.5,0.7,2.3,2.5l5.5,11.8l-1,2c-0.5,1.2-1,2-1.5,2.5c-0.3-1.3-1.2-2-2.3-2
			c-1.2,0-2.2,0.8-2.2,2.3c0,1.5,1.3,2.7,2.7,2.7C366.1,33.9,367.4,32.7,368.9,29.2 M360.1,25.1l-0.5-1c-0.8,0.3-1.7,0.7-2.3,0.7
			c-1.5,0-2-0.8-2-1.8V13h4.2v-1.8h-4.2v-3h-0.7l-6,3.8v1h2.3v10.8c0,2.2,1.2,3.3,3.7,3.3C356.8,26.9,358.6,26.2,360.1,25.1
			 M347.6,25.6c-2-0.3-2.3-0.7-2.3-2.5V10.5h-1.7l-4.8,3.2v0.7h2.3v8.8c0,1.8-0.3,2.2-2.3,2.5v1h8.8V25.6z M343,8
			c1.3,0,2.5-1.2,2.5-2.5s-1-2.3-2.3-2.3c-1.5,0-2.5,1.2-2.5,2.5C340.7,7,341.7,8,343,8 M337.2,21.8c0-3-2.5-4-5-4.8
			c-2.3-0.8-4-1.2-4-3c0-1,0.7-1.8,2-1.8c1.7,0,3.2,1,5,3l0.8-0.3l-1.3-4.2h-0.5l-0.7,0.5c-1-0.3-2-0.7-3.2-0.7c-3.5,0-5.8,2-5.8,5
			c0,3,2.5,4,5,4.6c2.3,0.8,4,1.2,4,3c0,1.2-0.8,2-2.3,2c-2.2,0-3.8-1.5-6-4l-0.8,0.3l1.3,5.1h0.5l1-0.7c1.2,0.5,2.3,0.8,3.7,0.8
			C334.4,27.1,337.2,25.1,337.2,21.8 M320.1,25.7c-2.2-0.3-2.5-0.8-2.5-2.8v-6.8c0.7-1.2,1.3-2,2-2.7c0,1.3,0.8,2.2,2,2.2
			c1.2,0,2.2-0.8,2.2-2.7c0-1.5-0.8-2.3-2.3-2.3c-1.7,0-2.8,1.3-4,3.3v-3.3h-1.5l-4.8,3.2v0.7h2.3v8.8c0,1.8-0.3,2.3-2.2,2.5v1h8.8
			L320.1,25.7z M299.5,16.8c0-2.7,1.2-4.3,3.3-4.3c1.5,0,2.5,1.2,2.8,3.2l-6.1,2.2C299.5,17.4,299.5,17.1,299.5,16.8 M309.8,23.8
			l-0.8-0.7c-0.8,1-2.2,1.7-3.8,1.7c-3,0-4.8-2.3-5.3-5.3l9.8-3.3c-0.2-3.5-2.8-5.3-6-5.3c-4.6,0-8,3.7-8,8.3c0,4.5,3,8,8,8
			C306.8,27.1,308.6,25.6,309.8,23.8 M292.5,15.6c1.2-2.7,1.7-3.3,2.8-3.7v-1h-6.5v1c2.2,0.5,2.3,1.5,1.3,3.8l-2.5,6l-3.2-7
			c-0.7-1.5-0.5-2.5,1.7-2.7v-1h-8.6v1c1,0.3,1.5,0.7,2.3,2.5l5.6,12.1h1.7L292.5,15.6z M277.4,25.7c-2-0.3-2.3-0.7-2.3-2.5V10.6
			h-1.7l-4.8,3.2v0.7h2.3v8.8c0,1.8-0.3,2.2-2.3,2.5v1h8.8L277.4,25.7z M272.8,8.1c1.3,0,2.5-1.2,2.5-2.5s-1-2.3-2.3-2.3
			c-1.5,0-2.5,1.2-2.5,2.5C270.4,7.1,271.4,8.1,272.8,8.1 M256.2,25.7c-1.8-0.3-2.2-0.7-2.2-2.5v-7.6c1.7-1.5,3-2.2,4.2-2.2
			c1.7,0,2,0.8,2.2,2.3v7.5c0,1.8-0.3,2.3-2.2,2.5v1h8.5v-1c-1.8-0.3-2.2-0.7-2.2-2.5v-7.8c0-2.7-1.2-4.5-4.5-4.5c-2,0-4,1.3-6,3
			v-3.2h-1.5l-4.8,3.2v0.7h2.3v8.8c0,1.8-0.3,2.3-2.2,2.5v1h8.5L256.2,25.7z M220.3,6.5v9.8c0,6.3,3.3,10.8,11.8,10.8
			s11.8-4.5,11.6-10.8v-8c0-3.8,1-4.8,3-5.3V2h-8v1c1.8,0.5,3,1.5,3,5.3v8c0,5.6-3,8.1-8.5,8.1s-8.5-2.5-8.5-8.1v-10
			c0-2.5,0.7-3,2.8-3.2V2h-10v1.2C219.6,3.5,220.3,4,220.3,6.5"/>
		<path class="st0" d="M193.9,25.9c-1.8-0.3-2.2-0.7-2.2-2.5v-7.6c1.7-1.5,3-2.2,4.2-2.2c1.7,0,2,0.8,2.2,2.3v7.5
			c0,1.8-0.3,2.3-2.2,2.5v1h8.5v-1c-1.8-0.3-2.2-0.7-2.2-2.5v-7.8c0-2.7-1.2-4.5-4.5-4.5c-2,0-4,1.3-6,3V11h-1.5l-4.8,3.2v0.7h2.3
			v8.8c0,1.8-0.3,2.3-2.2,2.5v1h8.5L193.9,25.9z M180.8,25.9c-2.2-0.3-2.5-0.8-2.5-2.8v-6.8c0.7-1.2,1.3-2,2-2.7
			c0,1.3,0.8,2.2,2,2.2s2.2-0.8,2.2-2.7c0-1.5-0.8-2.3-2.3-2.3c-1.7,0-2.8,1.3-4,3.3v-3.3h-1.5l-4.8,3.2v0.7h2.3v8.8
			c0,1.8-0.3,2.3-2.2,2.5v1h8.8L180.8,25.9z M160.2,16.9c0-2.7,1.2-4.3,3.3-4.3c1.5,0,2.5,1.2,2.8,3.2l-6.1,2.2
			C160.2,17.8,160.2,17.4,160.2,16.9 M170.5,23.9l-0.8-0.7c-0.8,1-2.2,1.7-3.8,1.7c-3,0-4.8-2.3-5.3-5.3l9.8-3.3
			c-0.2-3.5-2.8-5.3-6-5.3c-4.6,0-8,3.7-8,8.3c0,4.5,3,8,8,8C167.5,27.2,169.3,25.9,170.5,23.9 M155.2,25.6l-0.5-1
			c-0.8,0.3-1.7,0.7-2.3,0.7c-1.5,0-2-0.8-2-1.8v-10h4.2v-1.8h-4.2v-3h-0.7l-6,3.8v1h2.3v10.8c0,2.2,1.2,3.3,3.7,3.3
			C151.9,27.4,153.7,26.7,155.2,25.6 M142.8,22.1c0-3-2.5-4-5-4.8c-2.3-0.8-4-1.2-4-3c0-1,0.7-1.8,2-1.8c1.7,0,3.2,1,5,3l0.8-0.3
			l-1.3-4.2h-0.5l-0.7,0.5c-1-0.3-2-0.7-3.2-0.7c-3.5,0-5.8,2-5.8,5c0,3,2.5,4,5,4.6c2.3,0.8,4,1.2,4,3c0,1.2-0.8,2-2.3,2
			c-2.2,0-3.8-1.5-6-4l-0.8,0.3l1.3,5.1h0.5l1-0.7c1.2,0.5,2.3,0.8,3.7,0.8C140.1,27.4,142.8,25.4,142.8,22.1 M117.5,22.9
			c0-1.7,0.8-2.5,4.6-3.5v4.8c-1,0.7-1.7,1-2.5,1C118.2,25.1,117.5,24.4,117.5,22.9 M124.7,27.2c1.5,0,3-0.7,4-1.3l-0.3-1
			c-1.7,0.3-2.2,0-2.2-1v-8.8c0-2.7-1.2-4-4.8-4c-4.2,0-7.3,2.3-7.3,4.3c0,1,0.7,1.8,1.8,1.8c1.3,0,2-0.8,2.2-1.8
			c0.2-1-0.2-1.8-0.7-2.2c0.8-0.3,1.7-0.7,2.5-0.7c1.5,0,2.2,0.5,2.2,1.8v3.3c-5.8,1.5-8.6,2.8-8.6,5.8c0,2.3,1.5,3.7,4,3.7
			c1.5,0,3.3-0.7,4.8-1.8C122.5,26.6,123.4,27.2,124.7,27.2 M101.4,17.1c0-2.7,1.2-4.3,3.3-4.3c1.5,0,2.5,1.2,2.8,3.2l-6.1,2.2
			C101.4,17.8,101.4,17.4,101.4,17.1 M111.7,24.1l-0.8-0.7c-0.8,1-2.2,1.7-3.8,1.7c-3,0-4.8-2.3-5.3-5.3l9.8-3.3
			c-0.2-3.5-2.8-5.3-6-5.3c-4.6,0-8,3.7-8,8.3c0,4.5,3,8,8,8C108.7,27.4,110.6,26.1,111.7,24.1 M85.5,26.1c-1.8-0.3-2.2-0.7-2.2-2.5
			v-7.6c1.7-1.5,2.8-2.2,4.2-2.2c1.7,0,2,0.8,2.2,2.3v7.5c0,1.8-0.3,2.3-2.2,2.5v1H96v-1c-1.8-0.3-2.2-0.7-2.2-2.5v-7.8
			c0-2.7-1.2-4.5-4.5-4.5c-2,0-4,1.2-6,2.8V1h-1.2l-5.3,3.5v0.7h2.3v18.4c0,1.8-0.3,2.3-2.2,2.5v1h8.5V26.1z M76,25.6l-0.5-1
			c-0.8,0.3-1.7,0.7-2.3,0.7c-1.5,0-2-0.8-2-1.8v-10h4.2v-1.8h-4.2v-3h-0.7l-6,3.8v1h2.3v10.8c0,2.2,1.2,3.3,3.7,3.3
			C72.7,27.4,74.5,26.9,76,25.6 M59.9,26.1c-2.2-0.3-2.5-0.8-2.5-2.8v-6.8c0.7-1.2,1.3-2,2-2.7c0,1.3,0.8,2.2,2,2.2s2.2-0.8,2.2-2.7
			c0-1.5-0.8-2.3-2.3-2.3c-1.7,0-2.8,1.3-4,3.3V11h-1.5L51,14.1v0.7h2.3v8.8c0,1.8-0.3,2.3-2.2,2.5v1h8.8L59.9,26.1z M36.2,17.8
			c0-3,1.3-4.8,4-4.8c3.5,0,4.5,4.3,4.5,8.1c0,3-1.3,4.8-4,4.8C37.2,25.9,36.2,21.6,36.2,17.8 M48.8,19.1c0-4.3-3-8-8.1-8
			c-5.3,0-8.5,3.8-8.5,8.3c0,4.3,3,8,8.1,8C45.7,27.6,48.8,23.6,48.8,19.1 M27.2,9c0-3.8,1-4.8,3-5.3v-1h-8v1c1.8,0.5,3,1.5,3,5.3
			v11.6L8.5,3.7c-1-1-1.3-1-1.8-1H0.5v1c1.3,0.2,2.2,0.7,3.7,2.2c0.5,0.5,1,1,1,2v13.1c0,3.8-1,4.8-3,5.3v1h8v-1
			c-1.8-0.5-3-1.5-3-5.3V8.5l18.9,18.9h1.3L27.2,9z"/>
	</g>
</g>
</svg>
